<svg xmlns="http://www.w3.org/2000/svg" width="44" height="16.001" viewBox="0 0 44 16.001">
  <g id="Logo_Carta" data-name="Logo Carta" transform="translate(0)">
    <rect id="Rettangolo_5620" data-name="Rettangolo 5620" width="44" height="16" transform="translate(0)" fill="none"/>
    <path id="icon-mastercard" d="M12.237,21.383c.063.053.129.106.2.158a8,8,0,1,1,0-13.329,1.651,1.651,0,0,0-.178.162,8.605,8.605,0,0,0-.014,13.01ZM17.891,6.876a7.96,7.96,0,0,0-4.429,1.336,1.651,1.651,0,0,1,.178.162,8.605,8.605,0,0,1,.014,13.01c-.063.053-.129.106-.2.158A8,8,0,1,0,17.891,6.876ZM12.946,8.591c-.1.081-.2.162-.3.249a8,8,0,0,0,0,12.072c.1.086.2.17.3.25.1-.08.2-.164.3-.25a8,8,0,0,0,0-12.072C13.151,8.754,13.049,8.672,12.946,8.591Z" transform="translate(9.053 -6.875)" fill="rgba(41,53,64,0.6)"/>
  </g>
</svg>
