<svg id="Logo_Carta" data-name="Logo Carta" xmlns="http://www.w3.org/2000/svg" width="44.002" height="16" viewBox="0 0 44.002 16">
  <rect id="Rettangolo_5620" data-name="Rettangolo 5620" width="44" height="16" transform="translate(0.002)" fill="none"/>
  <path id="icon-visa" d="M513.629,319.73l-5.675,13.535h-3.7l-2.791-10.8a1.482,1.482,0,0,0-.833-1.189,14.633,14.633,0,0,0-3.454-1.151l.084-.393h5.957a1.631,1.631,0,0,1,1.615,1.38l1.475,7.833,3.644-9.212Zm14.5,9.116c.015-3.573-4.941-3.769-4.906-5.365.01-.486.473-1,1.485-1.134a6.609,6.609,0,0,1,3.453.606l.614-2.87a9.4,9.4,0,0,0-3.275-.6c-3.461,0-5.9,1.84-5.917,4.478-.022,1.95,1.738,3.033,3.066,3.683,1.363.664,1.822,1.088,1.816,1.682-.009.909-1.088,1.309-2.094,1.324a7.32,7.32,0,0,1-3.6-.855l-.634,2.965a10.609,10.609,0,0,0,3.894.722c3.677,0,6.085-1.818,6.1-4.631m9.138,4.419h3.239l-2.826-13.535h-2.99a1.6,1.6,0,0,0-1.491.993L527.95,333.27h3.677l.73-2.022h4.492Zm-3.906-4.8,1.844-5.083,1.061,5.083Zm-14.733-8.739-2.9,13.535h-3.5l2.9-13.535Z" transform="translate(-497.174 -318.899)" fill="rgba(41,53,64,0.6)"/>
</svg>
